<svg fill="none" height="118" viewBox="0 0 136 118" width="136" xmlns="http://www.w3.org/2000/svg"><path d="m67.9164 2.34619 65.6506 113.70881h-131.30046z" stroke="#fff" stroke-width="2"/><path d="m67.0503 1.8462c.3849-.66667 1.3472-.66667 1.7321-.00001l65.6506 113.70881c.384.666-.097 1.5-.866 1.5h-131.30037c-.7698 0-1.251-.834-.8661-1.5z" fill="#373737"/><g stroke="#fff" stroke-width="2"><path d="m67.9164 9.63141 58.1836 100.77559h-116.36677z"/><path d="m67.9164 16.9167 50.4526 87.3853h-100.9048z"/><path d="m67.9162 32.1054 37.9708 65.7661h-75.9409z"/><path d="m67.9164 40.2368 30.9932 53.6815h-61.9862z"/><path d="m67.9164 55.3815 17.7274 30.7047h-35.4548z"/><path d="m67.9162 63.1181 11.0305 19.1053h-22.0609z"/><path d="m67.9163 70.2345 4.6212 8.0042h-9.2425z"/></g></svg>